# xmcd
#
# Track frame offsets:
#	150
#	17625
#	32745
#	50040
#	63427
#	80735
#	96305
#	116107
#	131265
#	149827
#	173080
#
# Disc length: 2516 seconds
#
# Revision: 2
# Processed by: cddbd v1.4PL0 Copyright (c) Steve Scherf et al.
# Submitted via: CDmax 1.8
#
DISCID=9f09d20b
DTITLE=Trisha Yearwood - Where Your Road Leads
DYEAR=1900
DGENRE=Country
TTITLE0=There Goes My Baby
TTITLE1=Never Let You Go Again
TTITLE2=That Ain't The Way I Heard It
TTITLE3=Powerful Thing
TTITLE4=Love Wouldn't Lie To Me
TTITLE5=Wouldn't Any Woman
TTITLE6=I'll Still Love You More
TTITLE7=Heart Like A Sad Song
TTITLE8=I Don't Want To Be The One
TTITLE9=Bring Me All Your Lovin'
TTITLE10=Where The Road Leads (Duet With Garth Brooks)
EXTD=
EXTT0=
EXTT1=
EXTT2=
EXTT3=
EXTT4=
EXTT5=
EXTT6=
EXTT7=
EXTT8=
EXTT9=
EXTT10=
PLAYORDER=
